{
  "accessors": [
    {
      "bufferView": 2,
      "componentType": 5126,
      "count": 4680,
      "max": [
        101.99997711181641,
        22.599998474121094,
        87
      ],
      "min": [
        -101.99997711181641,
        -28.400001525878906,
        0
      ],
      "type": "VEC3"
    },
    {
      "bufferView": 2,
      "byteOffset": 56160,
      "componentType": 5126,
      "count": 4680,
      "max": [
        1,
        1,
        1
      ],
      "min": [
        -1,
        -1,
        -1
      ],
      "type": "VEC3"
    },
    {
      "bufferView": 3,
      "componentType": 5126,
      "count": 4680,
      "max": [
        1,
        1,
        1,
        1
      ],
      "min": [
        -1,
        -1,
        -1,
        -1
      ],
      "type": "VEC4"
    },
    {
      "bufferView": 1,
      "componentType": 5126,
      "count": 4680,
      "max": [
        1.9972219467163086,
        0.99757200479507446
      ],
      "min": [
        0.0024210000410676003,
        0.0024220000486820936
      ],
      "type": "VEC2"
    },
    {
      "bufferView": 0,
      "componentType": 5125,
      "count": 11904,
      "max": [
        4679
      ],
      "min": [
        0
      ],
      "type": "SCALAR"
    },
    {
      "bufferView": 2,
      "byteOffset": 112320,
      "componentType": 5126,
      "count": 19276,
      "max": [
        82.236114501953125,
        -22.598670959472656,
        77.199996948242188
      ],
      "min": [
        -82.236114501953125,
        -23.500896453857422,
        20.499998092651367
      ],
      "type": "VEC3"
    },
    {
      "bufferView": 2,
      "byteOffset": 343632,
      "componentType": 5126,
      "count": 19276,
      "max": [
        1,
        1,
        1
      ],
      "min": [
        -1,
        -1,
        -1
      ],
      "type": "VEC3"
    },
    {
      "bufferView": 3,
      "byteOffset": 74880,
      "componentType": 5126,
      "count": 19276,
      "max": [
        1,
        1,
        1,
        1
      ],
      "min": [
        -1,
        -1,
        -1,
        -1
      ],
      "type": "VEC4"
    },
    {
      "bufferView": 1,
      "byteOffset": 37440,
      "componentType": 5126,
      "count": 19276,
      "max": [
        1.9969650506973267,
        0.95531898736953735
      ],
      "min": [
        0.0030980000738054514,
        0.0030330000445246696
      ],
      "type": "VEC2"
    },
    {
      "bufferView": 0,
      "byteOffset": 47616,
      "componentType": 5125,
      "count": 43008,
      "max": [
        19275
      ],
      "min": [
        0
      ],
      "type": "SCALAR"
    },
    {
      "bufferView": 2,
      "byteOffset": 574944,
      "componentType": 5126,
      "count": 5332,
      "max": [
        85.999984741210938,
        23.599998474121094,
        85.000007629394531
      ],
      "min": [
        -85.999984741210938,
        -26.193899154663086,
        46.999996185302734
      ],
      "type": "VEC3"
    },
    {
      "bufferView": 2,
      "byteOffset": 638928,
      "componentType": 5126,
      "count": 5332,
      "max": [
        1,
        1,
        1
      ],
      "min": [
        -1,
        -1,
        -1
      ],
      "type": "VEC3"
    },
    {
      "bufferView": 3,
      "byteOffset": 383296,
      "componentType": 5126,
      "count": 5332,
      "max": [
        1,
        1,
        1,
        1
      ],
      "min": [
        -1,
        -1,
        -1,
        -1
      ],
      "type": "VEC4"
    },
    {
      "bufferView": 1,
      "byteOffset": 191648,
      "componentType": 5126,
      "count": 5332,
      "max": [
        1.9894659519195557,
        0.99231797456741333
      ],
      "min": [
        0.0030320000369101763,
        0.0030350000597536564
      ],
      "type": "VEC2"
    },
    {
      "bufferView": 0,
      "byteOffset": 219648,
      "componentType": 5125,
      "count": 20472,
      "max": [
        5331
      ],
      "min": [
        0
      ],
      "type": "SCALAR"
    },
    {
      "bufferView": 2,
      "byteOffset": 702912,
      "componentType": 5126,
      "count": 46208,
      "max": [
        79.051101684570312,
        -19.580297470092773,
        213.11143493652344
      ],
      "min": [
        -79.051101684570312,
        -25.899663925170898,
        91.988540649414062
      ],
      "type": "VEC3"
    },
    {
      "bufferView": 2,
      "byteOffset": 1257408,
      "componentType": 5126,
      "count": 46208,
      "max": [
        1,
        1,
        1
      ],
      "min": [
        -1,
        -1,
        -1
      ],
      "type": "VEC3"
    },
    {
      "bufferView": 3,
      "byteOffset": 468608,
      "componentType": 5126,
      "count": 46208,
      "max": [
        1,
        1,
        1,
        1
      ],
      "min": [
        -1,
        -1,
        -1,
        -1
      ],
      "type": "VEC4"
    },
    {
      "bufferView": 1,
      "byteOffset": 234304,
      "componentType": 5126,
      "count": 46208,
      "max": [
        0.9962189793586731,
        0.99704200029373169
      ],
      "min": [
        0.0028979999478906393,
        0.0028979999478906393
      ],
      "type": "VEC2"
    },
    {
      "bufferView": 0,
      "byteOffset": 301536,
      "componentType": 5125,
      "count": 88008,
      "max": [
        46207
      ],
      "min": [
        0
      ],
      "type": "SCALAR"
    },
    {
      "bufferView": 2,
      "byteOffset": 1811904,
      "componentType": 5126,
      "count": 4320,
      "max": [
        94.999977111816406,
        22.75,
        228.99343872070312
      ],
      "min": [
        -94.999977111816406,
        -21.251045227050781,
        84.256546020507812
      ],
      "type": "VEC3"
    },
    {
      "bufferView": 2,
      "byteOffset": 1863744,
      "componentType": 5126,
      "count": 4320,
      "max": [
        1,
        1,
        1
      ],
      "min": [
        -1,
        -1,
        -1
      ],
      "type": "VEC3"
    },
    {
      "bufferView": 3,
      "byteOffset": 1207936,
      "componentType": 5126,
      "count": 4320,
      "max": [
        1,
        1,
        1,
        1
      ],
      "min": [
        -1,
        -1,
        -1,
        -1
      ],
      "type": "VEC4"
    },
    {
      "bufferView": 1,
      "byteOffset": 603968,
      "componentType": 5126,
      "count": 4320,
      "max": [
        0.99139302968978882,
        0.98102599382400513
      ],
      "min": [
        0.0029039999935775995,
        0.13676099479198456
      ],
      "type": "VEC2"
    },
    {
      "bufferView": 0,
      "byteOffset": 653568,
      "componentType": 5125,
      "count": 14328,
      "max": [
        4319
      ],
      "min": [
        0
      ],
      "type": "SCALAR"
    },
    {
      "bufferView": 2,
      "byteOffset": 1915584,
      "componentType": 5126,
      "count": 144,
      "max": [
        91.799980163574219,
        17.5,
        209.64999389648438
      ],
      "min": [
        -91.799980163574219,
        -18.200000762939453,
        95.449989318847656
      ],
      "type": "VEC3"
    },
    {
      "bufferView": 2,
      "byteOffset": 1917312,
      "componentType": 5126,
      "count": 144,
      "max": [
        1,
        1,
        1
      ],
      "min": [
        -1,
        -1,
        -1
      ],
      "type": "VEC3"
    },
    {
      "bufferView": 1,
      "byteOffset": 638528,
      "componentType": 5126,
      "count": 144,
      "max": [
        0,
        0
      ],
      "min": [
        0,
        0
      ],
      "type": "VEC2"
    },
    {
      "bufferView": 0,
      "byteOffset": 710880,
      "componentType": 5125,
      "count": 216,
      "max": [
        143
      ],
      "min": [
        0
      ],
      "type": "SCALAR"
    },
    {
      "bufferView": 2,
      "byteOffset": 1919040,
      "componentType": 5126,
      "count": 651,
      "max": [
        90.700027465820312,
        22,
        224
      ],
      "min": [
        -90.699981689453125,
        -15.100002288818359,
        87.649986267089844
      ],
      "type": "VEC3"
    },
    {
      "bufferView": 2,
      "byteOffset": 1926852,
      "componentType": 5126,
      "count": 651,
      "max": [
        1,
        1,
        1
      ],
      "min": [
        -1,
        -1,
        -1
      ],
      "type": "VEC3"
    },
    {
      "bufferView": 3,
      "byteOffset": 1277056,
      "componentType": 5126,
      "count": 651,
      "max": [
        1,
        1,
        1,
        1
      ],
      "min": [
        -1,
        -1,
        -1,
        1
      ],
      "type": "VEC4"
    },
    {
      "bufferView": 1,
      "byteOffset": 639680,
      "componentType": 5126,
      "count": 651,
      "max": [
        1.447172999382019,
        1.5107829570770264
      ],
      "min": [
        -0.49340599775314331,
        -0.51737099885940552
      ],
      "type": "VEC2"
    },
    {
      "bufferView": 0,
      "byteOffset": 711744,
      "componentType": 5125,
      "count": 1326,
      "max": [
        650
      ],
      "min": [
        0
      ],
      "type": "SCALAR"
    },
    {
      "bufferView": 2,
      "byteOffset": 1934664,
      "componentType": 5126,
      "count": 4189,
      "max": [
        100.99997711181641,
        22.599998474121094,
        225
      ],
      "min": [
        -100.99997711181641,
        -27.399999618530273,
        86.999984741210938
      ],
      "type": "VEC3"
    },
    {
      "bufferView": 2,
      "byteOffset": 1984932,
      "componentType": 5126,
      "count": 4189,
      "max": [
        1,
        1,
        1
      ],
      "min": [
        -1,
        -1,
        -1
      ],
      "type": "VEC3"
    },
    {
      "bufferView": 3,
      "byteOffset": 1287472,
      "componentType": 5126,
      "count": 4189,
      "max": [
        1,
        1,
        1,
        1
      ],
      "min": [
        -1,
        -1,
        -1,
        -1
      ],
      "type": "VEC4"
    },
    {
      "bufferView": 1,
      "byteOffset": 644888,
      "componentType": 5126,
      "count": 4189,
      "max": [
        0.99614101648330688,
        0.99744099378585815
      ],
      "min": [
        0.0025539998896420002,
        0.0025539998896420002
      ],
      "type": "VEC2"
    },
    {
      "bufferView": 0,
      "byteOffset": 717048,
      "componentType": 5125,
      "count": 7560,
      "max": [
        4188
      ],
      "min": [
        0
      ],
      "type": "SCALAR"
    }
  ],
  "asset": {
    "extras": {
      "author": "Interiors3D (https://sketchfab.com/Interiors3D)",
      "license": "CC-BY-4.0 (http://creativecommons.org/licenses/by/4.0/)",
      "source": "https://sketchfab.com/3d-models/a39100-f448df7de41845daa6e469e8ba41ce18",
      "title": "A39100"
    },
    "generator": "Sketchfab-8.48.0",
    "version": "2.0"
  },
  "bufferViews": [
    {
      "buffer": 0,
      "byteLength": 747288,
      "byteOffset": 0,
      "name": "floatBufferViews",
      "target": 34963
    },
    {
      "buffer": 0,
      "byteLength": 678400,
      "byteOffset": 747288,
      "byteStride": 8,
      "name": "floatBufferViews",
      "target": 34962
    },
    {
      "buffer": 0,
      "byteLength": 2035200,
      "byteOffset": 1425688,
      "byteStride": 12,
      "name": "floatBufferViews",
      "target": 34962
    },
    {
      "buffer": 0,
      "byteLength": 1354496,
      "byteOffset": 3460888,
      "byteStride": 16,
      "name": "floatBufferViews",
      "target": 34962
    }
  ],
  "buffers": [
    {
      "byteLength": 4815384,
      "uri": "scene.bin"
    }
  ],
  "images": [
    {
      "uri": "textures/A390.Bruges.black_baseColor.jpeg"
    },
    {
      "uri": "textures/A390.Bruges.black_metallicRoughness.png"
    },
    {
      "uri": "textures/A390.Bruges.black_normal.png"
    },
    {
      "uri": "textures/A390.Metal_baseColor.jpeg"
    },
    {
      "uri": "textures/A390.Metal_metallicRoughness.png"
    },
    {
      "uri": "textures/A390.Metal_normal.png"
    },
    {
      "uri": "textures/A399.Metal.black_baseColor.jpeg"
    },
    {
      "uri": "textures/A399.Metal.black_metallicRoughness.png"
    },
    {
      "uri": "textures/A399.Mirror_baseColor.png"
    },
    {
      "uri": "textures/A399.Wood.back_baseColor.jpeg"
    },
    {
      "uri": "textures/A399.Wood.back_metallicRoughness.png"
    },
    {
      "uri": "textures/A399.Wood.back_normal.png"
    },
    {
      "uri": "textures/A399.wood.white_baseColor.jpeg"
    },
    {
      "uri": "textures/A399.wood.white_metallicRoughness.png"
    },
    {
      "uri": "textures/A399.wood.white_normal.png"
    }
  ],
  "materials": [
    {
      "doubleSided": true,
      "name": "A390.Bruges.black",
      "normalTexture": {
        "index": 2,
        "scale": 0.59999999999999998,
        "texCoord": 0
      },
      "pbrMetallicRoughness": {
        "baseColorFactor": [
          1,
          1,
          1,
          1
        ],
        "baseColorTexture": {
          "index": 0,
          "texCoord": 0
        },
        "metallicFactor": 0,
        "metallicRoughnessTexture": {
          "index": 1,
          "texCoord": 0
        },
        "roughnessFactor": 1
      }
    },
    {
      "doubleSided": true,
      "emissiveFactor": [
        0,
        0,
        0
      ],
      "name": "A390.Metal",
      "normalTexture": {
        "index": 5,
        "scale": 1,
        "texCoord": 0
      },
      "pbrMetallicRoughness": {
        "baseColorFactor": [
          0.80000000000000004,
          0.80000000000000004,
          0.80000000000000004,
          1
        ],
        "baseColorTexture": {
          "index": 3,
          "texCoord": 0
        },
        "metallicFactor": 1,
        "metallicRoughnessTexture": {
          "index": 4,
          "texCoord": 0
        },
        "roughnessFactor": 1
      }
    },
    {
      "doubleSided": true,
      "emissiveFactor": [
        0,
        0,
        0
      ],
      "name": "A399.Metal.black",
      "normalTexture": {
        "index": 5,
        "scale": 1,
        "texCoord": 0
      },
      "pbrMetallicRoughness": {
        "baseColorFactor": [
          0.80000000000000004,
          0.80000000000000004,
          0.80000000000000004,
          1
        ],
        "baseColorTexture": {
          "index": 6,
          "texCoord": 0
        },
        "metallicFactor": 1,
        "metallicRoughnessTexture": {
          "index": 7,
          "texCoord": 0
        },
        "roughnessFactor": 1
      }
    },
    {
      "alphaMode": "BLEND",
      "doubleSided": true,
      "name": "A399.Mirror",
      "pbrMetallicRoughness": {
        "baseColorFactor": [
          1,
          1,
          1,
          1
        ],
        "baseColorTexture": {
          "index": 8,
          "texCoord": 0
        },
        "metallicFactor": 0,
        "roughnessFactor": 0.050000000000000003
      }
    },
    {
      "doubleSided": true,
      "emissiveFactor": [
        0,
        0,
        0
      ],
      "name": "A399.Wood.back",
      "normalTexture": {
        "index": 11,
        "scale": 1,
        "texCoord": 0
      },
      "pbrMetallicRoughness": {
        "baseColorFactor": [
          1,
          1,
          1,
          1
        ],
        "baseColorTexture": {
          "index": 9,
          "texCoord": 0
        },
        "metallicFactor": 0,
        "metallicRoughnessTexture": {
          "index": 10,
          "texCoord": 0
        },
        "roughnessFactor": 1
      }
    },
    {
      "doubleSided": true,
      "name": "A399.wood.white",
      "normalTexture": {
        "index": 14,
        "scale": 0.59999999999999998,
        "texCoord": 0
      },
      "pbrMetallicRoughness": {
        "baseColorFactor": [
          1,
          1,
          1,
          1
        ],
        "baseColorTexture": {
          "index": 12,
          "texCoord": 0
        },
        "metallicFactor": 0,
        "metallicRoughnessTexture": {
          "index": 13,
          "texCoord": 0
        },
        "roughnessFactor": 1
      }
    }
  ],
  "meshes": [
    {
      "primitives": [
        {
          "attributes": {
            "NORMAL": 1,
            "POSITION": 0,
            "TANGENT": 2,
            "TEXCOORD_0": 3
          },
          "indices": 4,
          "material": 0,
          "mode": 4
        }
      ]
    },
    {
      "primitives": [
        {
          "attributes": {
            "NORMAL": 6,
            "POSITION": 5,
            "TANGENT": 7,
            "TEXCOORD_0": 8
          },
          "indices": 9,
          "material": 1,
          "mode": 4
        }
      ]
    },
    {
      "primitives": [
        {
          "attributes": {
            "NORMAL": 11,
            "POSITION": 10,
            "TANGENT": 12,
            "TEXCOORD_0": 13
          },
          "indices": 14,
          "material": 1,
          "mode": 4
        }
      ]
    },
    {
      "primitives": [
        {
          "attributes": {
            "NORMAL": 16,
            "POSITION": 15,
            "TANGENT": 17,
            "TEXCOORD_0": 18
          },
          "indices": 19,
          "material": 2,
          "mode": 4
        }
      ]
    },
    {
      "primitives": [
        {
          "attributes": {
            "NORMAL": 21,
            "POSITION": 20,
            "TANGENT": 22,
            "TEXCOORD_0": 23
          },
          "indices": 24,
          "material": 2,
          "mode": 4
        }
      ]
    },
    {
      "primitives": [
        {
          "attributes": {
            "NORMAL": 26,
            "POSITION": 25,
            "TEXCOORD_0": 27
          },
          "indices": 28,
          "material": 3,
          "mode": 4
        }
      ]
    },
    {
      "primitives": [
        {
          "attributes": {
            "NORMAL": 30,
            "POSITION": 29,
            "TANGENT": 31,
            "TEXCOORD_0": 32
          },
          "indices": 33,
          "material": 4,
          "mode": 4
        }
      ]
    },
    {
      "primitives": [
        {
          "attributes": {
            "NORMAL": 35,
            "POSITION": 34,
            "TANGENT": 36,
            "TEXCOORD_0": 37
          },
          "indices": 38,
          "material": 5,
          "mode": 4
        }
      ]
    }
  ],
  "nodes": [
    {
      "children": [
        1
      ],
      "name": "RootNode (gltf orientation matrix)",
      "rotation": [
        -0.70710678118654746,
        -0,
        -0,
        0.70710678118654757
      ]
    },
    {
      "children": [
        2
      ],
      "name": "RootNode (model correction matrix)"
    },
    {
      "children": [
        3,
        4,
        5,
        6,
        7,
        8,
        9,
        10
      ],
      "name": "W11 - A39100 - Sketchfab - mesh.black.obj.cleaner.materialmerger.gles"
    },
    {
      "mesh": 0,
      "name": ""
    },
    {
      "mesh": 1,
      "name": ""
    },
    {
      "mesh": 2,
      "name": ""
    },
    {
      "mesh": 3,
      "name": ""
    },
    {
      "mesh": 4,
      "name": ""
    },
    {
      "mesh": 5,
      "name": ""
    },
    {
      "mesh": 6,
      "name": ""
    },
    {
      "mesh": 7,
      "name": ""
    }
  ],
  "samplers": [
    {
      "magFilter": 9729,
      "minFilter": 9987,
      "wrapS": 10497,
      "wrapT": 10497
    }
  ],
  "scene": 0,
  "scenes": [
    {
      "name": "OSG_Scene",
      "nodes": [
        0
      ]
    }
  ],
  "textures": [
    {
      "sampler": 0,
      "source": 0
    },
    {
      "sampler": 0,
      "source": 1
    },
    {
      "sampler": 0,
      "source": 2
    },
    {
      "sampler": 0,
      "source": 3
    },
    {
      "sampler": 0,
      "source": 4
    },
    {
      "sampler": 0,
      "source": 5
    },
    {
      "sampler": 0,
      "source": 6
    },
    {
      "sampler": 0,
      "source": 7
    },
    {
      "sampler": 0,
      "source": 8
    },
    {
      "sampler": 0,
      "source": 9
    },
    {
      "sampler": 0,
      "source": 10
    },
    {
      "sampler": 0,
      "source": 11
    },
    {
      "sampler": 0,
      "source": 12
    },
    {
      "sampler": 0,
      "source": 13
    },
    {
      "sampler": 0,
      "source": 14
    }
  ]
}

